<svg width="65" height="16" viewBox="0 0 65 16" fill="none" xmlns="http://www.w3.org/2000/svg">
<path d="M0.0839844 9.0696V6.5696L10.084 2.16619V5.04261L3.23739 7.79119L3.32972 7.64205V7.99716L3.23739 7.84801L10.084 10.5966V13.473L0.0839844 9.0696ZM17.774 15V0.454545H23.5978C24.6679 0.454545 25.5604 0.613163 26.2754 0.930398C26.9904 1.24763 27.5278 1.68797 27.8876 2.25142C28.2475 2.81013 28.4274 3.45407 28.4274 4.18324C28.4274 4.75142 28.3137 5.25095 28.0865 5.68182C27.8592 6.10795 27.5467 6.45833 27.149 6.73295C26.756 7.00284 26.3062 7.1946 25.7995 7.30824V7.45028C26.3535 7.47396 26.872 7.63021 27.3549 7.91903C27.8426 8.20786 28.238 8.61269 28.541 9.13352C28.844 9.64962 28.9956 10.2652 28.9956 10.9801C28.9956 11.7519 28.8038 12.4408 28.4203 13.0469C28.0415 13.6482 27.4804 14.1241 26.737 14.4744C25.9937 14.8248 25.0775 15 23.9885 15H17.774ZM20.8493 12.4858H23.3564C24.2134 12.4858 24.8384 12.3224 25.2314 11.9957C25.6243 11.6643 25.8208 11.224 25.8208 10.6747C25.8208 10.2723 25.7238 9.91714 25.5297 9.60938C25.3355 9.30161 25.0585 9.06013 24.6987 8.88494C24.3436 8.70975 23.9198 8.62216 23.4274 8.62216H20.8493V12.4858ZM20.8493 6.54119H23.1291C23.5505 6.54119 23.9245 6.4678 24.2512 6.32102C24.5827 6.16951 24.8431 5.95644 25.0325 5.68182C25.2266 5.4072 25.3237 5.07812 25.3237 4.6946C25.3237 4.16903 25.1367 3.74527 24.7626 3.4233C24.3933 3.10133 23.8677 2.94034 23.1859 2.94034H20.8493V6.54119ZM34.0506 15.206C33.3546 15.206 32.7343 15.0852 32.1898 14.8438C31.6453 14.5975 31.2144 14.2353 30.8972 13.7571C30.5847 13.2741 30.4284 12.6728 30.4284 11.9531C30.4284 11.3471 30.5397 10.8381 30.7623 10.4261C30.9848 10.0142 31.2878 9.68277 31.6713 9.43182C32.0549 9.18087 32.4905 8.99148 32.9782 8.86364C33.4706 8.7358 33.9867 8.64583 34.5265 8.59375C35.1609 8.52746 35.6723 8.46591 36.0605 8.40909C36.4488 8.34754 36.7305 8.25758 36.9057 8.1392C37.0809 8.02083 37.1685 7.84564 37.1685 7.61364V7.57102C37.1685 7.12121 37.0265 6.7732 36.7424 6.52699C36.463 6.28078 36.0653 6.15767 35.5492 6.15767C35.0047 6.15767 34.5714 6.27841 34.2495 6.51989C33.9275 6.75663 33.7144 7.05492 33.6103 7.41477L30.812 7.1875C30.954 6.52462 31.2334 5.9517 31.65 5.46875C32.0667 4.98106 32.6041 4.60701 33.2623 4.34659C33.9251 4.08144 34.6922 3.94886 35.5634 3.94886C36.1694 3.94886 36.7495 4.01989 37.3034 4.16193C37.8622 4.30398 38.3569 4.52415 38.7878 4.82244C39.2234 5.12074 39.5667 5.50426 39.8176 5.97301C40.0686 6.43703 40.1941 6.99337 40.1941 7.64205V15H37.3248V13.4872H37.2395C37.0643 13.8281 36.83 14.1288 36.5364 14.3892C36.2428 14.6449 35.8901 14.8461 35.4782 14.9929C35.0662 15.1349 34.5904 15.206 34.0506 15.206ZM34.9171 13.1179C35.3622 13.1179 35.7551 13.0303 36.0961 12.8551C36.437 12.6752 36.7045 12.4337 36.8986 12.1307C37.0927 11.8277 37.1898 11.4844 37.1898 11.1009V9.94318C37.0951 10.0047 36.9649 10.0616 36.7992 10.1136C36.6382 10.161 36.4559 10.206 36.2523 10.2486C36.0487 10.2865 35.8451 10.322 35.6415 10.3551C35.4379 10.3835 35.2533 10.4096 35.0875 10.4332C34.7324 10.4853 34.4223 10.5682 34.1571 10.6818C33.892 10.7955 33.686 10.9493 33.5392 11.1435C33.3925 11.3329 33.3191 11.5696 33.3191 11.8537C33.3191 12.2656 33.4682 12.5805 33.7665 12.7983C34.0695 13.0114 34.4531 13.1179 34.9171 13.1179ZM47.4703 15.2131C46.3529 15.2131 45.3917 14.9763 44.5868 14.5028C43.7866 14.0246 43.1711 13.3617 42.7402 12.5142C42.3141 11.6667 42.101 10.6913 42.101 9.58807C42.101 8.47064 42.3165 7.49053 42.7473 6.64773C43.1829 5.80019 43.8008 5.13968 44.601 4.66619C45.4012 4.18797 46.3529 3.94886 47.4561 3.94886C48.4078 3.94886 49.2412 4.12169 49.9561 4.46733C50.6711 4.81297 51.2369 5.2983 51.6536 5.9233C52.0703 6.5483 52.2999 7.2822 52.3425 8.125H49.4874C49.4069 7.58049 49.1938 7.14252 48.8482 6.81108C48.5073 6.47491 48.0598 6.30682 47.5059 6.30682C47.0371 6.30682 46.6275 6.43466 46.2772 6.69034C45.9315 6.94129 45.6616 7.30824 45.4675 7.79119C45.2734 8.27415 45.1763 8.8589 45.1763 9.54545C45.1763 10.2415 45.271 10.8333 45.4604 11.321C45.6545 11.8087 45.9268 12.1804 46.2772 12.4361C46.6275 12.6918 47.0371 12.8196 47.5059 12.8196C47.8515 12.8196 48.1616 12.7486 48.4363 12.6065C48.7156 12.4645 48.9453 12.2585 49.1252 11.9886C49.3098 11.714 49.4306 11.3849 49.4874 11.0014H52.3425C52.2952 11.8348 52.0679 12.5687 51.6607 13.2031C51.2582 13.8329 50.7019 14.3253 49.9917 14.6804C49.2814 15.0355 48.441 15.2131 47.4703 15.2131ZM57.0211 11.8608L57.0282 8.23153H57.4686L60.9629 4.09091H64.4359L59.7413 9.57386H59.024L57.0211 11.8608ZM54.2797 15V0.454545H57.3052V15H54.2797ZM61.0978 15L57.8876 10.2486L59.9047 8.1108L64.6419 15H61.0978Z" fill="#C8CE38"/>
</svg>
