<svg width="35" height="34" viewBox="0 0 35 34" fill="none" xmlns="http://www.w3.org/2000/svg">
<path d="M26.9107 3.64285C27.9574 3.64285 28.9612 4.05864 29.7013 4.79873C30.4414 5.53883 30.8572 6.54262 30.8572 7.58928V26.4107C30.8572 27.4574 30.4414 28.4612 29.7013 29.2013C28.9612 29.9414 27.9574 30.3571 26.9107 30.3571H8.08931C7.04265 30.3571 6.03886 29.9414 5.29877 29.2013C4.55867 28.4612 4.14288 27.4574 4.14288 26.4107V7.58928C4.14288 6.54262 4.55867 5.53883 5.29877 4.79873C6.03886 4.05864 7.04265 3.64285 8.08931 3.64285H26.9107ZM29.0357 11.5394H5.96431V26.4107C5.96431 27.5837 6.91631 28.5357 8.08931 28.5357H26.9107C27.4743 28.5357 28.0148 28.3118 28.4133 27.9133C28.8119 27.5148 29.0357 26.9743 29.0357 26.4107V11.5394ZM11.1238 21.2512C11.5264 21.2512 11.9124 21.4111 12.1971 21.6958C12.4818 21.9804 12.6417 22.3665 12.6417 22.7691C12.6417 23.1716 12.4818 23.5577 12.1971 23.8424C11.9124 24.127 11.5264 24.2869 11.1238 24.2869C10.7213 24.2869 10.3352 24.127 10.0505 23.8424C9.76587 23.5577 9.60596 23.1716 9.60596 22.7691C9.60596 22.3665 9.76587 21.9804 10.0505 21.6958C10.3352 21.4111 10.7213 21.2512 11.1238 21.2512ZM17.5037 21.2512C17.9062 21.2512 18.2923 21.4111 18.577 21.6958C18.8616 21.9804 19.0215 22.3665 19.0215 22.7691C19.0215 23.1716 18.8616 23.5577 18.577 23.8424C18.2923 24.127 17.9062 24.2869 17.5037 24.2869C17.1011 24.2869 16.715 24.127 16.4304 23.8424C16.1457 23.5577 15.9858 23.1716 15.9858 22.7691C15.9858 22.3665 16.1457 21.9804 16.4304 21.6958C16.715 21.4111 17.1011 21.2512 17.5037 21.2512ZM11.1238 15.1798C11.5264 15.1798 11.9124 15.3397 12.1971 15.6244C12.4818 15.909 12.6417 16.2951 12.6417 16.6976C12.6417 17.1002 12.4818 17.4863 12.1971 17.7709C11.9124 18.0556 11.5264 18.2155 11.1238 18.2155C10.7213 18.2155 10.3352 18.0556 10.0505 17.7709C9.76587 17.4863 9.60596 17.1002 9.60596 16.6976C9.60596 16.2951 9.76587 15.909 10.0505 15.6244C10.3352 15.3397 10.7213 15.1798 11.1238 15.1798ZM17.5037 15.1798C17.9062 15.1798 18.2923 15.3397 18.577 15.6244C18.8616 15.909 19.0215 16.2951 19.0215 16.6976C19.0215 17.1002 18.8616 17.4863 18.577 17.7709C18.2923 18.0556 17.9062 18.2155 17.5037 18.2155C17.1011 18.2155 16.715 18.0556 16.4304 17.7709C16.1457 17.4863 15.9858 17.1002 15.9858 16.6976C15.9858 16.2951 16.1457 15.909 16.4304 15.6244C16.715 15.3397 17.1011 15.1798 17.5037 15.1798ZM23.8847 15.1798C24.2873 15.1798 24.6734 15.3397 24.958 15.6244C25.2427 15.909 25.4026 16.2951 25.4026 16.6976C25.4026 17.1002 25.2427 17.4863 24.958 17.7709C24.6734 18.0556 24.2873 18.2155 23.8847 18.2155C23.4822 18.2155 23.0961 18.0556 22.8115 17.7709C22.5268 17.4863 22.3669 17.1002 22.3669 16.6976C22.3669 16.2951 22.5268 15.909 22.8115 15.6244C23.0961 15.3397 23.4822 15.1798 23.8847 15.1798ZM26.9107 5.46428H8.08931C7.52573 5.46428 6.98522 5.68816 6.58671 6.08668C6.1882 6.48519 5.96431 7.0257 5.96431 7.58928V9.71792H29.0357V7.58928C29.0357 7.0257 28.8119 6.48519 28.4133 6.08668C28.0148 5.68816 27.4743 5.46428 26.9107 5.46428Z" fill="black"/>
</svg>
