<svg width="30" height="30" viewBox="0 0 30 30" fill="none" xmlns="http://www.w3.org/2000/svg">
<path d="M5.09533 7.78547C5.09533 6.78747 5.47878 5.83034 6.16133 5.12465C6.84387 4.41895 7.7696 4.0225 8.73486 4.0225C9.70012 4.0225 10.6258 4.41895 11.3084 5.12465C11.9909 5.83034 12.3744 6.78747 12.3744 7.78547C12.3744 8.78347 11.9909 9.7406 11.3084 10.4463C10.6258 11.152 9.70012 11.5484 8.73486 11.5484C7.7696 11.5484 6.84387 11.152 6.16133 10.4463C5.47878 9.7406 5.09533 8.78347 5.09533 7.78547ZM8.73486 1.76471C7.19044 1.76471 5.70927 2.39904 4.61721 3.52815C3.52514 4.65726 2.91162 6.18867 2.91162 7.78547C2.91162 9.38228 3.52514 10.9137 4.61721 12.0428C5.70927 13.1719 7.19044 13.8062 8.73486 13.8062C10.2793 13.8062 11.7604 13.1719 12.8525 12.0428C13.9446 10.9137 14.5581 9.38228 14.5581 7.78547C14.5581 6.18867 13.9446 4.65726 12.8525 3.52815C11.7604 2.39904 10.2793 1.76471 8.73486 1.76471ZM19.6534 9.29066C19.6534 8.69186 19.8835 8.11758 20.293 7.69417C20.7026 7.27075 21.258 7.03288 21.8371 7.03288C22.4163 7.03288 22.9717 7.27075 23.3813 7.69417C23.7908 8.11758 24.0209 8.69186 24.0209 9.29066C24.0209 9.88946 23.7908 10.4637 23.3813 10.8872C22.9717 11.3106 22.4163 11.5484 21.8371 11.5484C21.258 11.5484 20.7026 11.3106 20.293 10.8872C19.8835 10.4637 19.6534 9.88946 19.6534 9.29066ZM21.8371 4.77509C20.6788 4.77509 19.568 5.25084 18.7489 6.09767C17.9299 6.9445 17.4697 8.09306 17.4697 9.29066C17.4697 10.4883 17.9299 11.6368 18.7489 12.4837C19.568 13.3305 20.6788 13.8062 21.8371 13.8062C22.9955 13.8062 24.1063 13.3305 24.9254 12.4837C25.7444 11.6368 26.2046 10.4883 26.2046 9.29066C26.2046 8.09306 25.7444 6.9445 24.9254 6.09767C24.1063 5.25084 22.9955 4.77509 21.8371 4.77509ZM17.8308 24.3998C18.8542 24.8287 20.1659 25.0952 21.8386 25.0952C25.1608 25.0952 27.0591 24.046 28.0942 22.7501C28.5965 22.1209 28.8512 21.4857 28.9823 20.9995C29.0569 20.7178 29.1023 20.4287 29.1176 20.1371V20.0964C29.1176 19.6657 29.0356 19.2392 28.8762 18.8413C28.7168 18.4434 28.4831 18.0818 28.1885 17.7772C27.894 17.4727 27.5443 17.2311 27.1594 17.0663C26.7745 16.9014 26.362 16.8166 25.9454 16.8166H17.7318C17.691 16.8166 17.6517 16.8166 17.6124 16.8196C18.186 17.4368 18.6023 18.2119 18.8003 19.0744H25.9454C26.487 19.0744 26.9267 19.5245 26.9339 20.0814C26.9236 20.1893 26.9041 20.2961 26.8757 20.4005C26.7858 20.7352 26.6268 21.0459 26.4098 21.3111C25.9003 21.9523 24.7036 22.8374 21.8386 22.8374C20.4119 22.8374 19.3987 22.6176 18.6795 22.3181C18.5223 22.9202 18.2631 23.6472 17.8308 24.3998ZM3.27557 16.8166C2.40684 16.8166 1.57368 17.1734 0.959393 17.8085C0.345104 18.4437 0 19.3051 0 20.2033V20.6217C0.00171096 20.7264 0.00851325 20.8309 0.0203812 20.9348C0.140601 22.0548 0.529966 23.1259 1.153 24.0506C2.34385 25.8086 4.61783 27.3529 8.73486 27.3529C12.8519 27.3529 15.1259 25.8101 16.3167 24.0491C16.9399 23.1245 17.3293 22.0534 17.4493 20.9333C17.4596 20.8297 17.4664 20.7258 17.4697 20.6217V20.2033C17.4697 19.3051 17.1246 18.4437 16.5103 17.8085C15.896 17.1734 15.0629 16.8166 14.1941 16.8166H3.27557ZM2.18371 20.5901V20.2033C2.18371 19.9039 2.29875 19.6168 2.50351 19.405C2.70827 19.1933 2.98599 19.0744 3.27557 19.0744H14.1941C14.4837 19.0744 14.7614 19.1933 14.9662 19.405C15.171 19.6168 15.286 19.9039 15.286 20.2033V20.5901L15.2758 20.7105C15.1928 21.4452 14.9358 22.1473 14.5275 22.7546C13.8098 23.8157 12.2608 25.0952 8.73486 25.0952C5.20889 25.0952 3.65991 23.8157 2.94074 22.7546C2.53296 22.1471 2.27643 21.445 2.19391 20.7105C2.18949 20.6705 2.18609 20.6304 2.18371 20.5901Z" fill="#1E1E1E"/>
</svg>
