<svg width="77" height="77" viewBox="0 0 77 77" fill="none" xmlns="http://www.w3.org/2000/svg">
<path opacity="0.2" d="M57.1259 64.9688H13.8134C13.4346 64.9691 13.0611 64.8801 12.7232 64.7088C12.3853 64.5376 12.0926 64.2889 11.869 63.9832C11.6453 63.6775 11.497 63.3233 11.4361 62.9494C11.3752 62.5755 11.4034 62.1925 11.5185 61.8316L15.1279 50.5312H55.8205L59.4299 61.8316C59.5452 62.1932 59.5733 62.577 59.512 62.9516C59.4506 63.3262 59.3015 63.6809 59.0768 63.9869C58.8521 64.2928 58.5582 64.5412 58.2192 64.7119C57.8801 64.8825 57.5055 64.9706 57.1259 64.9688Z" fill="#C8CE38"/>
<path d="M53.2578 34.5417L61.3127 25.6807C61.7329 25.2071 61.9495 24.5869 61.9155 23.9546C61.8815 23.3223 61.5996 22.729 61.131 22.3031C60.6624 21.8773 60.0449 21.6533 59.4122 21.6797C58.7796 21.7062 58.1829 21.9809 57.7515 22.4443L51.5704 29.242L46.397 12.9787C46.0898 12.0038 45.479 11.1525 44.6539 10.5492C43.8287 9.94582 42.8323 9.62203 41.8101 9.62502H29.1261C28.1039 9.62203 27.1075 9.94582 26.2823 10.5492C25.4571 11.1525 24.8464 12.0038 24.5392 12.9787L9.22642 61.1037C8.99695 61.8251 8.9409 62.5905 9.06283 63.3376C9.18476 64.0848 9.48122 64.7926 9.92813 65.4036C10.375 66.0146 10.9598 66.5116 11.6349 66.8542C12.31 67.1967 13.0563 67.3752 13.8133 67.375H57.1258C57.8829 67.3752 58.6292 67.1967 59.3043 66.8542C59.9794 66.5116 60.5641 66.0146 61.0111 65.4036C61.458 64.7926 61.7544 64.0848 61.8764 63.3376C61.9983 62.5905 61.9422 61.8251 61.7128 61.1037L53.2578 34.5417ZM52.5299 48.125H40.9077L49.5161 38.6564L52.5299 48.125ZM29.1261 14.4375H41.8101L47.8257 33.3567L34.4048 48.125H18.4063L29.1261 14.4375ZM13.8133 62.5625L16.8753 52.9375H54.0609L57.1258 62.5625H13.8133Z" fill="#C8CE38"/>
</svg>
