<svg width="22" height="22" viewBox="0 0 22 22" fill="none" xmlns="http://www.w3.org/2000/svg">
<path fill-rule="evenodd" clip-rule="evenodd" d="M8.79998 9.9C9.38345 9.9 9.94303 9.66821 10.3556 9.25563C10.7682 8.84305 11 8.28348 11 7.7C11 7.11652 10.7682 6.55694 10.3556 6.14437C9.94303 5.73178 9.38345 5.5 8.79998 5.5C8.2165 5.5 7.65692 5.73178 7.24434 6.14437C6.83176 6.55694 6.59998 7.11652 6.59998 7.7C6.59998 8.28348 6.83176 8.84305 7.24434 9.25563C7.65692 9.66821 8.2165 9.9 8.79998 9.9Z" fill="#A4A4A4"/>
<path d="M7.36667 11.0899C7.469 10.9521 7.60218 10.84 7.75557 10.7629C7.90895 10.6857 8.07826 10.6455 8.24997 10.6455C8.42167 10.6455 8.59099 10.6857 8.74437 10.7629C8.89775 10.84 9.03094 10.9521 9.13327 11.0899L11.2343 13.9191C11.3558 14.0829 11.4294 14.2772 11.4469 14.4803C11.4644 14.6835 11.4251 14.8875 11.3334 15.0696C11.2416 15.2517 11.1011 15.4048 10.9274 15.5116C10.7537 15.6185 10.5538 15.6749 10.3499 15.6747H6.15007C5.94625 15.6747 5.74644 15.6181 5.57292 15.5112C5.39941 15.4042 5.25902 15.2512 5.16741 15.0691C5.07581 14.8871 5.03659 14.6831 5.05413 14.4801C5.07167 14.277 5.14529 14.0828 5.26677 13.9191L7.36667 11.0899Z" fill="#A4A4A4"/>
<path fill-rule="evenodd" clip-rule="evenodd" d="M8.24997 12.6684L7.24237 14.0247H9.25757L8.24997 12.6684ZM9.13327 11.0899C9.03094 10.9521 8.89775 10.84 8.74437 10.7629C8.59099 10.6857 8.42167 10.6455 8.24997 10.6455C8.07827 10.6455 7.90895 10.6857 7.75557 10.7629C7.60219 10.84 7.469 10.9521 7.36667 11.0899L5.26567 13.9191C5.14414 14.0829 5.07051 14.2772 5.05301 14.4803C5.03551 14.6835 5.07482 14.8875 5.16656 15.0696C5.2583 15.2517 5.39886 15.4048 5.57253 15.5116C5.7462 15.6185 5.94616 15.6749 6.15007 15.6747H10.3499C10.5537 15.6747 10.7535 15.6181 10.927 15.5112C11.1005 15.4042 11.2409 15.2512 11.3325 15.0691C11.4241 14.8871 11.4633 14.6831 11.4458 14.4801C11.4283 14.277 11.3546 14.0828 11.2332 13.9191L9.13217 11.0899H9.13327Z" fill="#A4A4A4"/>
<path d="M11.5434 10.0352C11.6467 9.91598 11.7744 9.82033 11.9179 9.75477C12.0614 9.6892 12.2173 9.65527 12.375 9.65527C12.5328 9.65527 12.6887 9.6892 12.8322 9.75477C12.9757 9.82033 13.1034 9.91598 13.2066 10.0352L16.5143 13.8544C16.6525 14.0138 16.7419 14.2096 16.7719 14.4183C16.802 14.6271 16.7713 14.8401 16.6837 15.032C16.596 15.2239 16.4551 15.3865 16.2776 15.5005C16.1002 15.6145 15.8937 15.675 15.6827 15.6749H9.06733C8.8564 15.675 8.6499 15.6145 8.47243 15.5005C8.29496 15.3865 8.15401 15.2239 8.06637 15.032C7.97873 14.8401 7.9481 14.6271 7.97812 14.4183C8.00815 14.2096 8.09757 14.0138 8.23573 13.8544L11.5434 10.0352Z" fill="#A4A4A4"/>
<path fill-rule="evenodd" clip-rule="evenodd" d="M12.375 11.595L10.2707 14.0249H14.4793L12.375 11.595ZM13.2066 10.0352C13.1034 9.91598 12.9757 9.82033 12.8322 9.75477C12.6887 9.6892 12.5328 9.65527 12.375 9.65527C12.2173 9.65527 12.0614 9.6892 11.9179 9.75477C11.7744 9.82033 11.6467 9.91598 11.5434 10.0352L8.23573 13.8544C8.09757 14.0138 8.00815 14.2096 7.97812 14.4183C7.9481 14.6271 7.97873 14.8401 8.06637 15.032C8.15401 15.2239 8.29496 15.3865 8.47243 15.5005C8.6499 15.6145 8.8564 15.675 9.06733 15.6749H15.6827C15.8937 15.675 16.1002 15.6145 16.2776 15.5005C16.4551 15.3865 16.596 15.2239 16.6837 15.032C16.7713 14.8401 16.802 14.6271 16.7719 14.4183C16.7419 14.2096 16.6525 14.0138 16.5143 13.8544L13.2066 10.0352Z" fill="#A4A4A4"/>
<path fill-rule="evenodd" clip-rule="evenodd" d="M3.85002 3.8499V18.1499H18.15V3.8499H3.85002ZM3.30002 1.6499C2.86242 1.6499 2.44273 1.82374 2.1333 2.13318C1.82386 2.44261 1.65002 2.8623 1.65002 3.2999V18.6999C1.65002 19.1375 1.82386 19.5572 2.1333 19.8666C2.44273 20.1761 2.86242 20.3499 3.30002 20.3499H18.7C19.1376 20.3499 19.5573 20.1761 19.8668 19.8666C20.1762 19.5572 20.35 19.1375 20.35 18.6999V3.2999C20.35 2.8623 20.1762 2.44261 19.8668 2.13318C19.5573 1.82374 19.1376 1.6499 18.7 1.6499H3.30002Z" fill="#A4A4A4"/>
</svg>
