<svg width="205" height="205" viewBox="0 0 205 205" fill="none" xmlns="http://www.w3.org/2000/svg">
<path d="M102.5 0C82.2275 0 62.4101 6.01152 45.5541 17.2744C28.6981 28.5372 15.5604 44.5455 7.80239 63.2749C0.0444117 82.0043 -1.98543 102.614 1.96955 122.497C5.92454 142.38 15.6867 160.644 30.0216 174.978C44.3565 189.313 62.6202 199.075 82.5033 203.03C102.386 206.985 122.996 204.956 141.725 197.198C160.454 189.44 176.463 176.302 187.726 159.446C198.988 142.59 205 122.773 205 102.5C205 89.0395 202.349 75.7108 197.198 63.2749C192.047 50.8391 184.496 39.5395 174.978 30.0215C165.46 20.5035 154.161 12.9535 141.725 7.80235C129.289 2.65124 115.961 0 102.5 0Z" fill="#C8CE38" fill-opacity="0.3"/>
<path d="M100 68C100 66.3431 101.343 65 103 65C104.657 65 106 66.3431 106 68V138C106 139.657 104.657 141 103 141C101.343 141 100 139.657 100 138V68Z" fill="white"/>
<path d="M138 100C139.657 100 141 101.343 141 103C141 104.657 139.657 106 138 106L68 106C66.3431 106 65 104.657 65 103C65 101.343 66.3431 100 68 100L138 100Z" fill="white"/>
</svg>
