<svg width="35" height="34" viewBox="0 0 35 34" fill="none" xmlns="http://www.w3.org/2000/svg">
<path fill-rule="evenodd" clip-rule="evenodd" d="M17.5 11.6875C16.091 11.6875 14.7398 12.2472 13.7435 13.2435C12.7472 14.2398 12.1875 15.591 12.1875 17C12.1875 18.409 12.7472 19.7602 13.7435 20.7565C14.7398 21.7528 16.091 22.3125 17.5 22.3125C18.909 22.3125 20.2602 21.7528 21.2565 20.7565C22.2528 19.7602 22.8125 18.409 22.8125 17C22.8125 15.591 22.2528 14.2398 21.2565 13.2435C20.2602 12.2472 18.909 11.6875 17.5 11.6875ZM14.3125 17C14.3125 16.1546 14.6483 15.3439 15.2461 14.7461C15.8439 14.1483 16.6546 13.8125 17.5 13.8125C18.3454 13.8125 19.1561 14.1483 19.7539 14.7461C20.3517 15.3439 20.6875 16.1546 20.6875 17C20.6875 17.8454 20.3517 18.6561 19.7539 19.2539C19.1561 19.8517 18.3454 20.1875 17.5 20.1875C16.6546 20.1875 15.8439 19.8517 15.2461 19.2539C14.6483 18.6561 14.3125 17.8454 14.3125 17Z" fill="black"/>
<path fill-rule="evenodd" clip-rule="evenodd" d="M17.4646 1.77084C16.8342 1.77084 16.3086 1.77084 15.8779 1.79918C15.4377 1.81751 15.0036 1.90846 14.593 2.06834C14.1202 2.26397 13.6905 2.55082 13.3286 2.91252C12.9667 3.27421 12.6795 3.70366 12.4836 4.17634C12.2782 4.67218 12.2229 5.19634 12.2002 5.76584C12.198 5.97412 12.1428 6.17841 12.04 6.35955C11.9372 6.54069 11.79 6.69273 11.6123 6.80143C11.4294 6.90131 11.2241 6.95306 11.0157 6.95182C10.8073 6.95058 10.6026 6.89639 10.4209 6.79434C9.91658 6.52801 9.43491 6.31409 8.90225 6.24326C8.395 6.17654 7.87958 6.21038 7.38542 6.34286C6.89125 6.47533 6.42802 6.70384 6.02216 7.01534C5.67901 7.29142 5.38369 7.62216 5.14808 7.99426C4.90725 8.35409 4.64375 8.80884 4.32925 9.35426L4.29383 9.41659C3.97791 9.96201 3.71583 10.4168 3.526 10.8049C3.32766 11.2101 3.17183 11.6096 3.11516 12.0516C2.98001 13.0758 3.25723 14.1118 3.88583 14.9317C4.21308 15.3581 4.6395 15.6683 5.12116 15.9715C5.30074 16.0777 5.45035 16.2278 5.55593 16.4077C5.66151 16.5876 5.71957 16.7915 5.72466 17C5.71957 17.2086 5.66151 17.4124 5.55593 17.5923C5.45035 17.7722 5.30074 17.9223 5.12116 18.0285C4.6395 18.3317 4.2145 18.6419 3.88583 19.0683C3.57433 19.4742 3.34582 19.9374 3.21334 20.4316C3.08087 20.9258 3.04703 21.4412 3.11375 21.9484C3.17183 22.3904 3.32625 22.7899 3.52458 23.1951C3.71583 23.5833 3.97791 24.038 4.29383 24.5834L4.32925 24.6458C4.64375 25.1912 4.90725 25.6459 5.14808 26.0058C5.39883 26.3783 5.668 26.7141 6.02216 26.9833C6.42791 27.295 6.89109 27.5238 7.38526 27.6565C7.87943 27.7892 8.39491 27.8233 8.90225 27.7568C9.43491 27.6859 9.91658 27.4734 10.4209 27.2057C10.6024 27.1038 10.8068 27.0496 11.015 27.0484C11.2232 27.0472 11.4282 27.0988 11.6109 27.1986C11.7896 27.3064 11.9377 27.4582 12.0411 27.6395C12.1445 27.8208 12.1998 28.0255 12.2017 28.2342C12.2229 28.8037 12.2782 29.3278 12.485 29.8237C12.6806 30.2965 12.9675 30.7261 13.3292 31.0881C13.6909 31.45 14.1203 31.7372 14.593 31.9331C15.0038 32.1031 15.4288 32.1697 15.8779 32.1994C16.3086 32.2292 16.8342 32.2292 17.4646 32.2292H17.5354C18.1658 32.2292 18.6914 32.2292 19.1221 32.2008C19.5726 32.1697 19.9962 32.1031 20.407 31.9317C20.8798 31.7361 21.3095 31.4492 21.6714 31.0875C22.0333 30.7258 22.3205 30.2964 22.5164 29.8237C22.7218 29.3278 22.7771 28.8037 22.7997 28.2342C22.8018 28.0257 22.8568 27.8211 22.9596 27.6397C23.0625 27.4583 23.2098 27.306 23.3877 27.1972C23.5707 27.0975 23.7761 27.046 23.9845 27.0475C24.1929 27.049 24.3975 27.1034 24.5791 27.2057C25.0834 27.472 25.5651 27.6859 26.0977 27.7553C27.122 27.8905 28.158 27.6133 28.9778 26.9847C29.332 26.7127 29.6012 26.3783 29.8519 26.0058C30.0927 25.6459 30.3562 25.1912 30.6707 24.6458L30.7062 24.5834C31.0221 24.038 31.2842 23.5833 31.474 23.1951C31.6723 22.7899 31.8282 22.389 31.8848 21.9484C32.02 20.9242 31.7428 19.8882 31.1142 19.0683C30.7869 18.6419 30.3605 18.3317 29.8788 18.0285C29.6993 17.9223 29.5496 17.7722 29.4441 17.5923C29.3385 17.4124 29.2804 17.2086 29.2753 17C29.2753 16.6062 29.4907 16.2152 29.8788 15.9715C30.3605 15.6683 30.7855 15.3581 31.1142 14.9317C31.4257 14.5258 31.6542 14.0626 31.7867 13.5684C31.9191 13.0743 31.953 12.5588 31.8862 12.0516C31.8188 11.6163 31.68 11.1951 31.4754 10.8049C31.2335 10.3342 30.977 9.87123 30.7062 9.41659L30.6707 9.35426C30.412 8.89255 30.1389 8.439 29.8519 7.99426C29.6163 7.62255 29.321 7.29228 28.9778 7.01676C28.5721 6.70501 28.1089 6.47624 27.6147 6.34353C27.1206 6.21081 26.6051 6.17674 26.0977 6.24326C25.5651 6.31409 25.0834 6.52659 24.5791 6.79434C24.3975 6.89614 24.1931 6.95019 23.985 6.95143C23.7769 6.95266 23.5718 6.90105 23.3891 6.80143C23.2109 6.69308 23.0631 6.54118 22.9598 6.36002C22.8565 6.17886 22.8009 5.97439 22.7983 5.76584C22.7771 5.19634 22.7218 4.67218 22.515 4.17634C22.3194 3.70353 22.0325 3.27389 21.6708 2.91195C21.3091 2.55001 20.8797 2.26287 20.407 2.06693C19.9962 1.89693 19.5712 1.83034 19.1221 1.80059C18.6914 1.77084 18.1658 1.77084 17.5354 1.77084H17.4646ZM15.4062 4.03043C15.5152 3.98509 15.681 3.94401 16.0224 3.91993C16.3723 3.89584 16.8257 3.89584 17.5 3.89584C18.1743 3.89584 18.6277 3.89584 18.9776 3.91993C19.319 3.94401 19.4847 3.98509 19.5938 4.03043C20.0287 4.21034 20.373 4.55459 20.5529 4.98951C20.6096 5.12551 20.6563 5.33943 20.6747 5.84518C20.7172 6.96718 21.2967 8.04809 22.3252 8.64168C23.3537 9.23668 24.5791 9.19701 25.5722 8.67284C26.0198 8.43626 26.2281 8.36968 26.3754 8.35126C26.8409 8.28975 27.3117 8.41562 27.6844 8.70118C27.7779 8.77343 27.8969 8.89668 28.0882 9.18001C28.2851 9.47184 28.5117 9.86426 28.8489 10.4479C29.1861 11.0316 29.4113 11.4254 29.5657 11.7399C29.7173 12.0473 29.7641 12.2117 29.7782 12.3293C29.8398 12.7947 29.7139 13.2656 29.4283 13.6383C29.3377 13.7558 29.1762 13.9032 28.7483 14.1723C27.7963 14.7702 27.1503 15.8128 27.1503 17C27.1503 18.1872 27.7963 19.2298 28.7483 19.8277C29.1762 20.0968 29.3377 20.2442 29.4283 20.3618C29.7145 20.7343 29.8392 21.2047 29.7782 21.6708C29.7641 21.7883 29.7159 21.9541 29.5657 22.2601C29.4113 22.576 29.1861 22.9684 28.8489 23.5521C28.5117 24.1358 28.2837 24.5282 28.0882 24.82C27.8969 25.1033 27.7779 25.2266 27.6844 25.2988C27.3117 25.5844 26.8409 25.7103 26.3754 25.6488C26.2281 25.6303 26.0212 25.5638 25.5722 25.3272C24.5805 24.803 23.3537 24.7633 22.3252 25.3569C21.2967 25.9519 20.7172 27.0328 20.6747 28.1548C20.6563 28.6606 20.6096 28.8745 20.5529 29.0105C20.4639 29.2256 20.3334 29.4209 20.1688 29.5855C20.0043 29.7501 19.8089 29.8806 19.5938 29.9696C19.4847 30.0149 19.319 30.056 18.9776 30.0801C18.6277 30.1042 18.1743 30.1042 17.5 30.1042C16.8257 30.1042 16.3723 30.1042 16.0224 30.0801C15.681 30.056 15.5152 30.0149 15.4062 29.9696C15.1911 29.8806 14.9957 29.7501 14.8312 29.5855C14.6666 29.4209 14.5361 29.2256 14.4471 29.0105C14.3904 28.8745 14.3437 28.6606 14.3252 28.1548C14.2827 27.0328 13.7033 25.9519 12.6748 25.3583C11.6463 24.7633 10.4209 24.803 9.42783 25.3272C8.98016 25.5638 8.77191 25.6303 8.62458 25.6488C8.15911 25.7103 7.68827 25.5844 7.31558 25.2988C7.22208 25.2266 7.10308 25.1033 6.91183 24.82C6.64537 24.4052 6.39167 23.9824 6.15108 23.5521C5.81391 22.9684 5.58866 22.5746 5.43425 22.2601C5.28266 21.9527 5.23591 21.7883 5.22175 21.6708C5.16024 21.2053 5.2861 20.7345 5.57166 20.3618C5.66233 20.2442 5.82383 20.0968 6.25166 19.8277C7.20366 19.2298 7.84966 18.1872 7.84966 17C7.84966 15.8128 7.20366 14.7702 6.25166 14.1723C5.82383 13.9032 5.66233 13.7558 5.57166 13.6383C5.2861 13.2656 5.16024 12.7947 5.22175 12.3293C5.23591 12.2117 5.28408 12.0459 5.43425 11.7399C5.58866 11.424 5.81391 11.0316 6.15108 10.4479C6.48825 9.86426 6.71633 9.47184 6.91183 9.18001C7.10308 8.89668 7.22208 8.77343 7.31558 8.70118C7.68827 8.41562 8.15911 8.28975 8.62458 8.35126C8.77191 8.36968 8.97875 8.43626 9.42783 8.67284C10.4195 9.19701 11.6463 9.23668 12.6748 8.64168C13.7033 8.04809 14.2827 6.96718 14.3252 5.84518C14.3437 5.33943 14.3904 5.12551 14.4471 4.98951C14.627 4.55459 14.9712 4.21034 15.4062 4.03043Z" fill="black"/>
</svg>
