<svg width="60" height="70" viewBox="0 0 60 70" fill="none" xmlns="http://www.w3.org/2000/svg">
<path d="M30 65C36.6304 65 42.9893 62.3661 47.6777 57.6777C52.3661 52.9892 55 46.6304 55 40C55 33.3696 52.3661 27.0107 47.6777 22.3223C42.9893 17.6339 36.6304 15 30 15C23.3696 15 17.0107 17.6339 12.3223 22.3223C7.63392 27.0107 5 33.3696 5 40C5 46.6304 7.63392 52.9892 12.3223 57.6777C17.0107 62.3661 23.3696 65 30 65ZM30 70C22.0435 70 14.4129 66.8393 8.7868 61.2132C3.16071 55.5871 0 47.9565 0 40C0 32.0435 3.16071 24.4129 8.7868 18.7868C14.4129 13.1607 22.0435 9.99995 30 9.99995C37.9565 9.99995 45.5871 13.1607 51.2132 18.7868C56.8393 24.4129 60 32.0435 60 40C60 47.9565 56.8393 55.5871 51.2132 61.2132C45.5871 66.8393 37.9565 70 30 70Z" fill="#C8CE38"/>
<path d="M30 20C30.663 20 31.2989 20.2634 31.7678 20.7322C32.2366 21.2011 32.5 21.837 32.5 22.5L32.46 40C32.46 40.6631 32.1966 41.2989 31.7278 41.7678C31.2589 42.2366 30.623 42.5 29.96 42.5C29.297 42.5 28.6611 42.2366 28.1922 41.7678C27.7234 41.2989 27.46 40.6631 27.46 40L27.5 22.5C27.5 21.837 27.7634 21.2011 28.2322 20.7322C28.7011 20.2634 29.337 20 30 20Z" fill="#C8CE38"/>
<path d="M25 40C25 41.3261 25.5268 42.5979 26.4645 43.5356C27.4021 44.4732 28.6739 45 30 45C31.3261 45 32.5979 44.4732 33.5355 43.5356C34.4732 42.5979 35 41.3261 35 40C35 38.6739 34.4732 37.4022 33.5355 36.4645C32.5979 35.5268 31.3261 35 30 35C28.6739 35 27.4021 35.5268 26.4645 36.4645C25.5268 37.4022 25 38.6739 25 40ZM32.5 5V15H27.5V5H20C19.337 5 18.7011 4.73661 18.2322 4.26777C17.7634 3.79893 17.5 3.16304 17.5 2.5C17.5 1.83696 17.7634 1.20107 18.2322 0.732233C18.7011 0.263392 19.337 0 20 0H40C40.663 0 41.2989 0.263392 41.7678 0.732233C42.2366 1.20107 42.5 1.83696 42.5 2.5C42.5 3.16304 42.2366 3.79893 41.7678 4.26777C41.2989 4.73661 40.663 5 40 5H32.5Z" fill="#C8CE38"/>
</svg>
